<svg width="22" height="22" viewBox="0 0 22 22" fill="none" xmlns="http://www.w3.org/2000/svg">
<path fill-rule="evenodd" clip-rule="evenodd" d="M14.9996 11.9992C14.4476 11.9992 13.9996 11.5512 13.9996 10.9992C13.9996 10.4472 14.4476 9.99917 14.9996 9.99917C15.5516 9.99917 15.9996 10.4472 15.9996 10.9992C15.9996 11.5512 15.5516 11.9992 14.9996 11.9992ZM10.9996 11.9992C10.4476 11.9992 9.99961 11.5512 9.99961 10.9992C9.99961 10.4472 10.4476 9.99917 10.9996 9.99917C11.5516 9.99917 11.9996 10.4472 11.9996 10.9992C11.9996 11.5512 11.5516 11.9992 10.9996 11.9992ZM6.99961 11.9992C6.44761 11.9992 5.99961 11.5512 5.99961 10.9992C5.99961 10.4472 6.44761 9.99917 6.99961 9.99917C7.55161 9.99917 7.99961 10.4472 7.99961 10.9992C7.99961 11.5512 7.55161 11.9992 6.99961 11.9992ZM18.0706 3.92817C15.7866 1.64417 12.6256 0.625171 9.39661 1.12417C5.31961 1.76017 1.93961 5.04417 1.17661 9.11117C0.809608 11.0692 1.02061 13.0632 1.78761 14.8762C1.88561 15.1062 1.91561 15.3222 1.87661 15.5152L1.01961 19.8032C0.953608 20.1312 1.05661 20.4702 1.29261 20.7062C1.48161 20.8952 1.73661 20.9992 1.99961 20.9992C2.06461 20.9992 2.13061 20.9932 2.19561 20.9792L6.47861 20.1232C6.72461 20.0762 6.96361 20.1452 7.12261 20.2112C8.93661 20.9782 10.9306 21.1882 12.8876 20.8222C16.9546 20.0592 20.2386 16.6792 20.8746 12.6022C21.3776 9.37417 20.3556 6.21317 18.0706 3.92817Z" fill="#707C97"/>
</svg>
