<svg width="20" height="21" viewBox="0 0 20 21" fill="none" xmlns="http://www.w3.org/2000/svg">
<path fill-rule="evenodd" clip-rule="evenodd" d="M11 11C11 11.553 10.552 12 10 12C9.44801 12 9.00001 11.553 9.00001 11V1C9.00001 0.447 9.44801 0 10 0C10.552 0 11 0.447 11 1V11ZM13.2389 2.5413C13.4919 2.0503 14.0959 1.8593 14.5859 2.1113C17.9249 3.8383 19.9999 7.2433 19.9999 11.0003C19.9999 16.5133 15.5139 21.0003 9.99991 21.0003C4.48591 21.0003 -9.15527e-05 16.5133 -9.15527e-05 11.0003C-9.15527e-05 7.2433 2.07491 3.8383 5.41491 2.1113C5.90391 1.8583 6.50791 2.0493 6.76191 2.5413C7.01591 3.0313 6.82291 3.6343 6.33291 3.8883C3.65991 5.2693 1.99991 7.9943 1.99991 11.0003C1.99991 15.4113 5.58891 19.0003 9.99991 19.0003C14.4109 19.0003 17.9999 15.4113 17.9999 11.0003C17.9999 7.9943 16.3399 5.2693 13.6679 3.8883C13.1769 3.6343 12.9849 3.0313 13.2389 2.5413Z" fill="#707C97"/>
</svg>
