<svg width="14" height="18" viewBox="0 0 14 18" fill="none" xmlns="http://www.w3.org/2000/svg">
<path fill-rule="evenodd" clip-rule="evenodd" d="M7 10.6667H4.5C4.04 10.6667 3.66667 10.2934 3.66667 9.83335C3.66667 9.37335 4.04 9.00002 4.5 9.00002H7C7.46 9.00002 7.83333 9.37335 7.83333 9.83335C7.83333 10.2934 7.46 10.6667 7 10.6667ZM3.66667 13.1667C3.66667 12.7067 4.04 12.3334 4.5 12.3334H9.5C9.96083 12.3334 10.3333 12.7067 10.3333 13.1667C10.3333 13.6267 9.96083 14 9.5 14H4.5C4.04 14 3.66667 13.6267 3.66667 13.1667ZM11.5369 15.6667H2.46276C2.20776 15.6667 2.00026 15.48 2.00026 15.25V2.75002C2.00026 2.52002 2.20776 2.33335 2.46276 2.33335H7.00026V4.95835C7.00026 6.26835 8.01442 7.33335 9.26192 7.33335H12.0003V15.25C12.0003 15.48 11.7928 15.6667 11.5369 15.6667ZM8.66692 3.14835L10.9519 5.66668H9.26192C8.93359 5.66668 8.66692 5.34918 8.66692 4.95835V3.14835ZM13.4503 5.94002L8.91359 0.94002C8.75526 0.765854 8.53193 0.666687 8.29609 0.666687H2.46276C1.28859 0.666687 0.333591 1.60169 0.333591 2.75002V15.25C0.333591 16.3984 1.28859 17.3334 2.46276 17.3334H11.5369C12.7111 17.3334 13.6669 16.3984 13.6669 15.25V6.50002C13.6669 6.29252 13.5894 6.09335 13.4503 5.94002Z" fill="#2A8BF2"/>
</svg>
