<svg width="10" height="12" viewBox="0 0 10 12" fill="none" xmlns="http://www.w3.org/2000/svg">
<path fill-rule="evenodd" clip-rule="evenodd" d="M5 1.33335C4.35658 1.33335 3.83333 1.8566 3.83333 2.50002V5.41669C3.83333 6.0601 4.35658 6.58335 5 6.58335C5.64342 6.58335 6.16667 6.0601 6.16667 5.41669V2.50002C6.16667 1.8566 5.64342 1.33335 5 1.33335ZM7.33334 5.41669C7.33334 6.70352 6.28684 7.75002 5 7.75002C3.71317 7.75002 2.66667 6.70352 2.66667 5.41669V2.50002C2.66667 1.21319 3.71317 0.166687 5 0.166687C6.28684 0.166687 7.33334 1.21319 7.33334 2.50002V5.41669ZM8.5 4.83335C8.82259 4.83335 9.08334 5.09469 9.08334 5.41669C9.08334 7.47002 7.55909 9.16869 5.58334 9.45335V10.6667H6.81125C7.09884 10.6667 7.33334 10.9012 7.33334 11.1888V11.3113C7.33334 11.5989 7.09884 11.8334 6.81125 11.8334H3.18875C2.90117 11.8334 2.66667 11.5989 2.66667 11.3113V11.1888C2.66667 10.9012 2.90117 10.6667 3.18875 10.6667H4.41667V9.45335C2.44092 9.16869 0.916668 7.47002 0.916668 5.41669C0.916668 5.09469 1.17742 4.83335 1.5 4.83335C1.82258 4.83335 2.08333 5.09469 2.08333 5.41669C2.08333 7.02494 3.39175 8.33335 5 8.33335C6.60825 8.33335 7.91667 7.02494 7.91667 5.41669C7.91667 5.09469 8.17742 4.83335 8.5 4.83335Z" fill="#231F20"/>
</svg>
