<svg width="17" height="22" viewBox="0 0 17 22" fill="none" xmlns="http://www.w3.org/2000/svg">
<path fill-rule="evenodd" clip-rule="evenodd" d="M14.2694 19.4258H2.76551C2.44223 19.4258 2.17916 19.1888 2.17916 18.8967V3.02578C2.17916 2.73375 2.44223 2.49674 2.76551 2.49674H7.46152V6.88771C7.46152 8.55099 8.74724 9.9032 10.3288 9.9032H14.8568V18.8967C14.8568 19.1888 14.5927 19.4258 14.2694 19.4258ZM14.486 7.78707H10.3288C9.91253 7.78707 9.57446 7.38394 9.57446 6.88771V2.49674H9.69278L14.486 7.78707ZM16.6951 7.07605L10.9436 0.72766C10.744 0.506525 10.4598 0.380615 10.1608 0.380615H2.76551C1.27694 0.380615 0.0662231 1.56776 0.0662231 3.02578V18.8967C0.0662231 20.3548 1.27694 21.5419 2.76551 21.5419H14.2694C15.758 21.5419 16.9698 20.3548 16.9698 18.8967V7.78707C16.9698 7.52361 16.8715 7.27073 16.6951 7.07605Z" fill="white"/>
</svg>
