<svg width="20" height="20" viewBox="0 0 20 20" fill="none" xmlns="http://www.w3.org/2000/svg">
<path fill-rule="evenodd" clip-rule="evenodd" d="M5.29181 7.94197C6.16657 7.94197 6.87652 7.23096 6.87652 6.35488C6.87652 5.4788 6.16657 4.76778 5.29181 4.76778C4.41706 4.76778 3.70711 5.4788 3.70711 6.35488C3.70711 7.23096 4.41706 7.94197 5.29181 7.94197ZM15.8565 17.4646H3.77155L11.1721 11.2802C11.432 11.059 11.9032 11.0601 12.1578 11.2791L16.913 15.3421V16.4065C16.913 16.9905 16.4397 17.4646 15.8565 17.4646ZM3.17887 2.65165H15.8565C16.4397 2.65165 16.913 3.12566 16.913 3.70972V12.5594L13.5291 9.66874C12.4832 8.77785 10.8467 8.77785 9.81034 9.66239L2.1224 16.087V3.70972C2.1224 3.12566 2.5957 2.65165 3.17887 2.65165ZM15.8565 0.535522H3.17887C1.43147 0.535522 0.00946045 1.95968 0.00946045 3.70972V16.4065C0.00946045 18.1565 1.43147 19.5807 3.17887 19.5807H15.8565C17.6039 19.5807 19.0259 18.1565 19.0259 16.4065V3.70972C19.0259 1.95968 17.6039 0.535522 15.8565 0.535522Z" fill="white"/>
</svg>
