<svg width="17" height="18" viewBox="0 0 17 18" fill="none" xmlns="http://www.w3.org/2000/svg">
<path fill-rule="evenodd" clip-rule="evenodd" d="M15.913 8.03877H9.57415V1.69039C9.57415 1.10528 9.10085 0.632324 8.51768 0.632324C7.93451 0.632324 7.46121 1.10528 7.46121 1.69039V8.03877H1.12239C0.539217 8.03877 0.065918 8.51173 0.065918 9.09684C0.065918 9.68195 0.539217 10.1549 1.12239 10.1549H7.46121V16.5033C7.46121 17.0884 7.93451 17.5614 8.51768 17.5614C9.10085 17.5614 9.57415 17.0884 9.57415 16.5033V10.1549H15.913C16.4961 10.1549 16.9694 9.68195 16.9694 9.09684C16.9694 8.51173 16.4961 8.03877 15.913 8.03877Z" fill="#231F20"/>
</svg>
