<svg width="16" height="16" viewBox="0 0 16 16" fill="none" xmlns="http://www.w3.org/2000/svg">
<path fill-rule="evenodd" clip-rule="evenodd" d="M8.5 3.6V0H6C3.17157 0 1.75736 0 0.87868 0.702944C0 1.40589 0 2.53726 0 4.8V11.2C0 13.4627 0 14.5941 0.87868 15.2971C1.75736 16 3.17157 16 6 16H10C12.8284 16 14.2426 16 15.1213 15.2971C16 14.5941 16 13.4627 16 11.2V6.1H11L10.9671 6.1C10.5238 6.10003 10.1419 6.10005 9.8361 6.05893C9.50835 6.01486 9.19417 5.91549 8.93934 5.66066C8.68451 5.40583 8.58514 5.09165 8.54107 4.7639C8.49995 4.45807 8.49997 4.07617 8.5 3.63293V3.63291L8.5 3.6ZM9.5 3.6V3.51714e-05C10.2145 0.000532108 10.5937 0.00805028 10.9369 0.121793C11.3045 0.243585 11.5935 0.47481 12.1716 0.937258L14.8284 3.06274C15.4065 3.52519 15.6955 3.75641 15.8478 4.05045C15.9814 4.30858 15.9977 4.59212 15.9997 5.1H11C10.5145 5.1 10.2006 5.09894 9.96935 5.06785C9.75248 5.03869 9.68451 4.99162 9.64645 4.95355C9.60839 4.91549 9.56131 4.84752 9.53215 4.63065C9.50106 4.39939 9.5 4.08554 9.5 3.6ZM7.03138 7.09908L9.94512 8.47369C10.685 8.82272 10.685 9.97728 9.94512 10.3263L7.03139 11.7009C6.30644 12.0429 5.5 11.4576 5.5 10.5893V8.21065C5.5 7.34244 6.30644 6.75708 7.03138 7.09908Z" fill="#FF3366"/>
</svg>
