<svg width="20" height="20" viewBox="0 0 20 20" fill="none" xmlns="http://www.w3.org/2000/svg">
<path fill-rule="evenodd" clip-rule="evenodd" d="M16.913 16.7739C16.913 17.2077 16.5601 17.5611 16.127 17.5611H14.8V15.445H16.913V16.7739ZM2.1224 16.7739V15.445H4.23534V17.5611H2.90842C2.47526 17.5611 2.1224 17.2077 2.1224 16.7739ZM2.90842 2.74821H4.23534V4.86434H2.1224V3.53541C2.1224 3.1016 2.47526 2.74821 2.90842 2.74821ZM16.913 3.53541V4.86434H14.8V2.74821H16.127C16.5601 2.74821 16.913 3.1016 16.913 3.53541ZM14.8 13.3289H16.913V11.2127H14.8V13.3289ZM14.8 9.0966H16.913V6.98047H14.8V9.0966ZM6.34828 17.5611H12.6871V2.74821H6.34828V17.5611ZM2.1224 13.3289H4.23534V11.2127H2.1224V13.3289ZM2.1224 9.0966H4.23534V6.98047H2.1224V9.0966ZM16.127 0.63208H2.90842C1.30998 0.63208 0.00946045 1.93562 0.00946045 3.53541V16.7739C0.00946045 18.3748 1.30998 19.6772 2.90842 19.6772H16.127C17.7254 19.6772 19.0259 18.3748 19.0259 16.7739V3.53541C19.0259 1.93562 17.7254 0.63208 16.127 0.63208Z" fill="white"/>
</svg>
