<svg width="20" height="21" viewBox="0 0 20 21" fill="none" xmlns="http://www.w3.org/2000/svg">
<path fill-rule="evenodd" clip-rule="evenodd" d="M7.46071 20.7161C5.71119 20.7161 4.04831 20.0114 2.77843 18.7322C0.255577 16.1897 0.152043 12.1585 2.54706 9.74501L10.3502 1.88359C11.1626 1.06465 12.2592 0.612854 13.4372 0.612854C14.6975 0.612854 15.8956 1.11967 16.8094 2.04018C18.6276 3.87169 18.6973 6.78243 16.9637 8.52823L9.15106 16.3886C8.64501 16.8996 7.96359 17.18 7.23251 17.18C6.46023 17.18 5.7281 16.8711 5.17239 16.3114C4.05993 15.1888 4.02506 13.3996 5.09527 12.3203L12.3057 5.06731C12.7177 4.65254 13.3854 4.65043 13.7995 5.06307C14.2126 5.47572 14.2147 6.14547 13.8027 6.55918L6.59334 13.8133C6.33979 14.0693 6.37466 14.5211 6.67152 14.8195C6.82577 14.975 7.03072 15.0639 7.23251 15.0639C7.34872 15.0639 7.51564 15.0353 7.65298 14.8967L15.4656 7.03636C16.3815 6.11267 16.3129 4.54145 15.3113 3.53205C14.3531 2.5671 12.7272 2.49092 11.8482 3.37546L4.04514 11.2369C2.46677 12.8272 2.5703 15.521 4.27756 17.2403C5.14704 18.1175 6.27746 18.5999 7.46071 18.5999C8.51823 18.5999 9.49864 18.2 10.2192 17.4742L18.0233 9.61275C18.4343 9.19905 19.103 9.19587 19.5172 9.60852C19.9302 10.0212 19.9323 10.6899 19.5214 11.1046L11.7172 18.966C10.5974 20.0939 9.08556 20.7161 7.46071 20.7161Z" fill="#231F20"/>
</svg>
