<svg width="20" height="20" viewBox="0 0 20 20" fill="none" xmlns="http://www.w3.org/2000/svg">
<path d="M7.91663 12.0833L7.91663 9.58331" stroke="#222222" stroke-linecap="round"/>
<path d="M12.0834 12.0833L12.0834 9.58331" stroke="#222222" stroke-linecap="round"/>
<path d="M2.5 5.41669H17.5V5.41669C16.6463 5.41669 16.2194 5.41669 15.8788 5.54488C15.3398 5.74775 14.9144 6.17316 14.7115 6.71219C14.5833 7.05277 14.5833 7.47963 14.5833 8.33335V12.25C14.5833 14.1356 14.5833 15.0784 13.9975 15.6642C13.4118 16.25 12.469 16.25 10.5833 16.25H9.41667C7.53105 16.25 6.58824 16.25 6.00245 15.6642C5.41667 15.0784 5.41667 14.1356 5.41667 12.25V8.33335C5.41667 7.47963 5.41667 7.05277 5.28848 6.71219C5.0856 6.17316 4.6602 5.74775 4.12117 5.54488C3.78058 5.41669 3.35372 5.41669 2.5 5.41669V5.41669Z" stroke="#222222" stroke-linecap="round"/>
<path d="M7.91671 2.91685C7.91671 2.91685 8.33337 2.08331 10 2.08331C11.6667 2.08331 12.0834 2.91665 12.0834 2.91665" stroke="#222222" stroke-linecap="round"/>
</svg>
