<svg width="5" height="20" viewBox="0 0 5 20" fill="none" xmlns="http://www.w3.org/2000/svg">
<path fill-rule="evenodd" clip-rule="evenodd" d="M2.38589 4.90322C3.55223 4.90322 4.49883 3.95519 4.49883 2.78709C4.49883 1.61899 3.55223 0.670959 2.38589 0.670959C1.21955 0.670959 0.272949 1.61899 0.272949 2.78709C0.272949 3.95519 1.21955 4.90322 2.38589 4.90322ZM2.38589 8.07741C1.21955 8.07741 0.272949 9.02544 0.272949 10.1935C0.272949 11.3616 1.21955 12.3097 2.38589 12.3097C3.55223 12.3097 4.49883 11.3616 4.49883 10.1935C4.49883 9.02544 3.55223 8.07741 2.38589 8.07741ZM0.272949 17.6C0.272949 16.4319 1.21955 15.4839 2.38589 15.4839C3.55223 15.4839 4.49883 16.4319 4.49883 17.6C4.49883 18.7681 3.55223 19.7161 2.38589 19.7161C1.21955 19.7161 0.272949 18.7681 0.272949 17.6Z" fill="#231F20"/>
</svg>
