<svg width="17" height="16" viewBox="0 0 17 16" fill="none" xmlns="http://www.w3.org/2000/svg">
<path fill-rule="evenodd" clip-rule="evenodd" d="M10.9499 15.914C10.9315 15.914 10.9139 15.9131 10.8962 15.9123C10.4983 15.8884 10.1664 15.5992 10.0872 15.2078L8.73312 8.53578C8.66269 8.18838 8.39241 7.91769 8.04554 7.84716L1.38361 6.49019C0.992713 6.41171 0.703944 6.07931 0.680174 5.68077C0.656403 5.28135 0.902033 4.91632 1.2806 4.79111L15.3669 0.0888971C15.6829 -0.0186728 16.0316 0.0642089 16.2675 0.301392C16.5035 0.537693 16.5853 0.886854 16.4806 1.20339L11.7846 15.3109C11.6648 15.6733 11.3268 15.914 10.9499 15.914Z" fill="#231F20"/>
</svg>
